#!OML:ASF H:\Punching\Project 1\Capture day 1\Session 1\female.ASF
:FULLY-SPECIFIED
:DEGREES
1774
root 2.29388 14.5162 -0.895565 10.0949 16.86 -1.36278
lowerback 0.456893 3.26331 4.76694
upperback -6.63564 4.74849 1.94121
thorax -6.97529 2.15516 -0.926739
lowerneck -8.12459 -8.92332 1.04819
upperneck 32.7319 -15.5518 7.5711
head 12.8837 -5.72316 0.679072
rclavicle 6.34123e-014 4.6118e-014
rhumerus 48.1279 -28.7708 -61.9198
rradius 24.7559
rwrist 6.49395
rhand -13.1647 -21.9025
rfingers 7.12502
rthumb 12.9344 -51.4817
lclavicle 6.34123e-014 4.6118e-014
lhumerus 18.9187 -50.8985 84.9795
lradius 127.839
lwrist 15.5383
lhand -22.5728 11.6289
lfingers 7.12502
lthumb 3.85563 41.5738
rfemur 25.4476 -31.9212 3.08274
rtibia -6.36111e-014
rfoot -17.2602 -13.4771
rtoes 2.94151
lfemur -50.4016 -2.99642 -10.5466
ltibia 43.1693
lfoot -1.76301 -0.536121
ltoes -4.54583
1775
root 2.29003 14.5319 -0.8898 10.1575 16.5045 -1.1829
lowerback 0.471274 3.47482 4.55029
upperback -6.64679 5.01428 1.78006
thorax -6.98458 2.29354 -0.991279
lowerneck -8.13409 -8.81516 1.33113
upperneck 32.9159 -15.5012 7.67404
head 12.9529 -5.63741 0.680464
rclavicle 1.18774e-014 1.66979e-014
rhumerus 48.816 -30.5731 -64.8213
rradius 24.9152
rwrist 12.4372
rhand -11.2865 -19.8775
rfingers 7.12502
rthumb 14.7445 -49.3331
lclavicle 1.18774e-014 1.66979e-014
lhumerus 18.8879 -50.8266 84.6605
lradius 127.852
lwrist 15.0101
lhand -22.3332 11.4547
lfingers 7.12502
lthumb 4.08699 41.3953
rfemur 25.2577 -31.5676 2.98122
rtibia -2.8625e-014
rfoot -17.1346 -13.5201
rtoes 2.82401
lfemur -50.085 -2.71738 -10.7373
ltibia 42.8608
lfoot -1.75003 -0.502403
ltoes -4.49213
1776
root 2.28553 14.5507 -0.883218 10.2966 16.0549 -1.0236
lowerback 0.394118 3.58055 4.26229
upperback -6.66198 5.13069 1.64314
thorax -6.96025 2.36399 -0.97702
lowerneck -8.16372 -8.60601 1.7181
upperneck 33.1372 -15.3277 7.7562
head 13.0267 -5.48608 0.673562
rclavicle 5.67033e-014 -2.14687e-014
rhumerus 47.5518 -30.3859 -65.1094
rradius 26.8785
rwrist 13.8591
rhand -9.54266 -18.6725
rfingers 7.12502
rthumb 16.424 -47.9972
lclavicle 5.67033e-014 -2.14687e-014
lhumerus 18.8357 -50.5907 84.3702
lradius 127.922
lwrist 14.5332
lhand -22.0342 11.3018
lfingers 7.12502
lthumb 4.37578 41.2366
rfemur 24.9136 -31.1537 2.96744
rtibia -5.725e-014
rfoot -16.9738 -13.5674
rtoes 2.6132
lfemur -49.8122 -2.51267 -10.821
ltibia 42.5222
lfoot -1.73799 -0.288403
ltoes -4.51688
1777
root 2.28132 14.571 -0.876595 10.4848 15.5189 -0.922455
lowerback 0.244812 3.59508 3.96443
upperback -6.68991 5.12257 1.53079
thorax -6.91683 2.37464 -0.920245
lowerneck -8.17476 -8.31209 2.20836
upperneck 33.3918 -15.0436 7.79457
head 13.0945 -5.27911 0.649942
rclavicle -4.87022e-015 1.03368e-014
rhumerus 44.7962 -28.457 -63.3838
rradius 30.3155
rwrist 10.8693
rhand -8.53629 -18.4863
rfingers 7.12502
rthumb 17.3928 -47.7281
lclavicle -4.87022e-015 1.03368e-014
lhumerus 18.7358 -50.2357 84.1434
lradius 128.052
lwrist 14.1606
lhand -21.7235 11.1925
lfingers 7.12502
lthumb 4.67579 41.1209
rfemur 24.4366 -30.6751 3.06454
rtibia 0
rfoot -16.7769 -13.625
rtoes 2.25372
lfemur -49.5902 -2.39835 -10.7572
ltibia 42.1919
lfoot -1.73891 0.11789
ltoes -4.6242
1778
root 2.27792 14.592 -0.870641 10.6894 14.8844 -0.899551
lowerback 0.0572556 3.53185 3.68701
upperback -6.7158 5.01172 1.4562
thorax -6.85493 2.33478 -0.827278
lowerneck -8.18033 -7.94121 2.77476
upperneck 33.6707 -14.6489 7.77212
head 13.1571 -5.02199 0.60594
rclavicle 3.72224e-014 3.02153e-014
rhumerus 41.5154 -25.3836 -60.9504
rradius 35.0094
rwrist 4.51867
rhand -8.81558 -19.3899
rfingers 7.12502
rthumb 17.1239 -48.6553
lclavicle 3.72224e-014 3.02153e-014
lhumerus 18.6205 -49.7718 83.9648
lradius 128.254
lwrist 13.952
lhand -21.4441 11.1146
lfingers 7.12502
lthumb 4.94558 41.0369
rfemur 23.8551 -30.1075 3.27324
rtibia 6.36111e-015
rfoot -16.5508 -13.693
rtoes 1.73008
lfemur -49.4023 -2.36708 -10.528
ltibia 41.9006
lfoot -1.76464 0.719691
ltoes -4.80808
1779
root 2.27603 14.613 -0.865597 10.8908 14.1266 -0.953374
lowerback -0.147325 3.41153 3.44259
upperback -6.72168 4.82699 1.42457
thorax -6.76491 2.25817 -0.702545
lowerneck -8.20996 -7.50157 3.38842
upperneck 33.9697 -14.1461 7.67168
head 13.2215 -4.72066 0.536891
rclavicle 1.77415e-014 -7.95139e-015
rhumerus 38.3969 -21.8345 -58.7549
rradius 40.7356
rwrist -3.84618
rhand -10.5824 -21.1166
rfingers 7.12502
rthumb 15.4227 -50.5212
lclavicle 1.77415e-014 -7.95139e-015
lhumerus 18.5429 -49.2203 83.795
lradius 128.546
lwrist 13.9564
lhand -21.2467 11.1392
lfingers 7.12502
lthumb 5.13618 41.0569
rfemur 23.1851 -29.4199 3.57657
rtibia -6.36111e-015
rfoot -16.2974 -13.7837
rtoes 1.00014
lfemur -49.2237 -2.39577 -10.1443
ltibia 41.6664
lfoot -1.82812 1.51349
ltoes -5.03415
1780
root 2.27545 14.6334 -0.862166 11.0762 13.2252 -1.06257
lowerback -0.327545 3.25544 3.22234
upperback -6.70423 4.59801 1.42772
thorax -6.66529 2.15908 -0.554338
lowerneck -8.26975 -7.00426 4.02868
upperneck 34.2728 -13.5455 7.49218
head 13.2859 -4.38315 0.443325
rclavicle 3.45885e-014 6.36111e-015
rhumerus 35.7027 -18.3621 -57.2034
rradius 47.178
rwrist -12.8256
rhand -13.3705 -23.1054
rfingers 7.12502
rthumb 12.736 -52.697
lclavicle 3.45885e-014 6.36111e-015
lhumerus 18.5205 -48.6123 83.6061
lradius 128.933
lwrist 14.2003
lhand -21.1535 11.2774
lfingers 7.12502
lthumb 5.22614 41.193
rfemur 22.445 -28.5902 3.9403
rtibia -1.90833e-014
rfoot -16.0304 -13.9077
rtoes 0.0893798
lfemur -49.0274 -2.45598 -9.64083
ltibia 41.4923
lfoot -1.93272 2.48052
ltoes -5.25895
